# xmcd CD database file
#
# Track frame offsets:
#	150
#	15864
#	34467
#	51251
#	65367
#	79027
#	92097
#	104881
#	117699
#	131710
#	145607
#	160248
#	189483
#	207610
#	227899
#	251444
#	264685
#	278357
#	292466
#	317474
#
# Disc length: 4552 seconds
#
# Revision: 0
# Processed by: cddbd v1.5.2PL0 Copyright (c) Steve Scherf et al.
# Submitted via: CDex 1.70beta2
#
DISCID=2f11c614
DTITLE=Various Artist - Jazz Roads CD336 - Bebop - Fats Navarro Vol.4 1948
DYEAR=2008
DGENRE=Jazz
TTITLE0=Tadd Dameron Sextet - The Tadd Walk
TTITLE1=Tadd Dameron Sextet - Symphonette
TTITLE2=Tadd Dameron Sextet - The Squirrel
TTITLE3=Benny Goodman Septet - Stealin' Apples
TTITLE4=Tadd Dameron Sextet - Jabhero (1)
TTITLE5=Tadd Dameron Sextet - Jabhero (2)
TTITLE6=Tadd Dameron Sextet - Lady Bird (1)
TTITLE7=Tadd Dameron Sextet - Lady Bird (2)
TTITLE8=Tadd Dameron Sextet - Symphonette (1)
TTITLE9=Tadd Dameron Sextet - Symphonette (2)
TTITLE10=Tadd Dameron Sextet - I Think I'll Go Away
TTITLE11=Tadd Dameron Sextet - Good Bait
TTITLE12=Tadd Dameron Sextet - The Squirrel
TTITLE13=Tadd Dameron Septet - Tadd Walk
TTITLE14=Tadd Dameron Septet - Dameronia
TTITLE15=Mcghee-Navarro Boptet - The Skunk (1)
TTITLE16=Mcghee-Navarro Boptet - The Skunk (2)
TTITLE17=Mcghee-Navarro Boptet - Boperation
TTITLE18=Mcghee-Navarro Boptet - Double Talk (1)
TTITLE19=Mcghee-Navarro Boptet - Double Talk (2)
EXTD=YEAR: 2008
EXTT0=
EXTT1=
EXTT2=
EXTT3=
EXTT4=
EXTT5=
EXTT6=
EXTT7=
EXTT8=
EXTT9=
EXTT10=
EXTT11=
EXTT12=
EXTT13=
EXTT14=
EXTT15=
EXTT16=
EXTT17=
EXTT18=
EXTT19=
PLAYORDER=
